{
  "accessors": [
    {
      "bufferView": 2,
      "componentType": 5126,
      "count": 65532,
      "max": [
        33.98366928100586,
        0.47237199544906616,
        21.004375457763672
      ],
      "min": [
        -30.312593460083008,
        -3.3294079303741455,
        1.0113669633865356
      ],
      "type": "VEC3"
    },
    {
      "bufferView": 2,
      "byteOffset": 786384,
      "componentType": 5126,
      "count": 65532,
      "max": [
        0.9999997615814209,
        0.9999996423721313,
        0.9999993443489075
      ],
      "min": [
        -0.9999998807907104,
        -1.0,
        -0.9999993443489075
      ],
      "type": "VEC3"
    },
    {
      "bufferView": 3,
      "componentType": 5126,
      "count": 65532,
      "max": [
        0.0470588244497776,
        0.8666666746139526,
        1.0,
        1.0
      ],
      "min": [
        0.0,
        0.0,
        0.0,
        1.0
      ],
      "type": "VEC4"
    },
    {
      "bufferView": 1,
      "componentType": 5126,
      "count": 65532,
      "max": [
        0.9999849796295166,
        0.999987006187439
      ],
      "min": [
        3.9999998989515007e-05,
        9.999999974752427e-07
      ],
      "type": "VEC2"
    },
    {
      "bufferView": 0,
      "componentType": 5125,
      "count": 359007,
      "type": "SCALAR"
    },
    {
      "bufferView": 2,
      "byteOffset": 1572768,
      "componentType": 5126,
      "count": 11767,
      "max": [
        34.12543487548828,
        0.40709298849105835,
        20.729248046875
      ],
      "min": [
        17.894716262817383,
        -2.048408031463623,
        4.9192609786987305
      ],
      "type": "VEC3"
    },
    {
      "bufferView": 2,
      "byteOffset": 1713972,
      "componentType": 5126,
      "count": 11767,
      "max": [
        0.9996543526649475,
        0.9999996423721313,
        0.9998778700828552
      ],
      "min": [
        -0.9992177486419678,
        -0.9999969005584717,
        -0.9999970197677612
      ],
      "type": "VEC3"
    },
    {
      "bufferView": 3,
      "byteOffset": 1048512,
      "componentType": 5126,
      "count": 11767,
      "max": [
        0.07058823853731155,
        0.8941176533699036,
        0.9960784316062927,
        1.0
      ],
      "min": [
        0.0,
        0.0,
        0.0,
        1.0
      ],
      "type": "VEC4"
    },
    {
      "bufferView": 1,
      "byteOffset": 524256,
      "componentType": 5126,
      "count": 11767,
      "max": [
        0.9970290064811707,
        0.9999330043792725
      ],
      "min": [
        0.016651000827550888,
        9.999999747378752e-05
      ],
      "type": "VEC2"
    },
    {
      "bufferView": 0,
      "byteOffset": 1436028,
      "componentType": 5125,
      "count": 62535,
      "type": "SCALAR"
    },
    {
      "bufferView": 2,
      "byteOffset": 1855176,
      "componentType": 5126,
      "count": 65532,
      "max": [
        29.263744354248047,
        0.3907049894332886,
        20.996274948120117
      ],
      "min": [
        -26.96023941040039,
        -3.145932912826538,
        1.013537049293518
      ],
      "type": "VEC3"
    },
    {
      "bufferView": 2,
      "byteOffset": 2641560,
      "componentType": 5126,
      "count": 65532,
      "max": [
        0.9999998807907104,
        0.9999996423721313,
        0.9999997615814209
      ],
      "min": [
        -0.9999996423721313,
        -0.9999996423721313,
        -0.9999993443489075
      ],
      "type": "VEC3"
    },
    {
      "bufferView": 3,
      "byteOffset": 1236784,
      "componentType": 5126,
      "count": 65532,
      "max": [
        0.0941176488995552,
        0.8784313797950745,
        1.0,
        1.0
      ],
      "min": [
        0.0,
        0.0,
        0.0,
        1.0
      ],
      "type": "VEC4"
    },
    {
      "bufferView": 1,
      "byteOffset": 618392,
      "componentType": 5126,
      "count": 65532,
      "max": [
        1.9997559785842896,
        0.9999179840087891
      ],
      "min": [
        1.0000710487365723,
        8.399999933317304e-05
      ],
      "type": "VEC2"
    },
    {
      "bufferView": 0,
      "byteOffset": 1686168,
      "componentType": 5125,
      "count": 359277,
      "type": "SCALAR"
    },
    {
      "bufferView": 2,
      "byteOffset": 3427944,
      "componentType": 5126,
      "count": 23266,
      "max": [
        28.40048599243164,
        0.38722899556159973,
        20.994281768798828
      ],
      "min": [
        -14.204155921936035,
        -1.9770489931106567,
        4.832474231719971
      ],
      "type": "VEC3"
    },
    {
      "bufferView": 2,
      "byteOffset": 3707136,
      "componentType": 5126,
      "count": 23266,
      "max": [
        0.999520480632782,
        0.9999909996986389,
        0.999993622303009
      ],
      "min": [
        -0.9998123645782471,
        -0.9999995231628418,
        -0.999993622303009
      ],
      "type": "VEC3"
    },
    {
      "bufferView": 3,
      "byteOffset": 2285296,
      "componentType": 5126,
      "count": 23266,
      "max": [
        0.062745101749897,
        0.8745098114013672,
        1.0,
        1.0
      ],
      "min": [
        0.0,
        0.0,
        0.0,
        1.0
      ],
      "type": "VEC4"
    },
    {
      "bufferView": 1,
      "byteOffset": 1142648,
      "componentType": 5126,
      "count": 23266,
      "max": [
        1.9997919797897339,
        0.9989989995956421
      ],
      "min": [
        1.0008989572525024,
        5.900000178371556e-05
      ],
      "type": "VEC2"
    },
    {
      "bufferView": 0,
      "byteOffset": 3123276,
      "componentType": 5125,
      "count": 124536,
      "type": "SCALAR"
    },
    {
      "bufferView": 2,
      "byteOffset": 3986328,
      "componentType": 5126,
      "count": 65532,
      "max": [
        34.134281158447266,
        0.39186200499534607,
        15.604990005493164
      ],
      "min": [
        -25.735416412353516,
        -3.331171989440918,
        1.0248759984970093
      ],
      "type": "VEC3"
    },
    {
      "bufferView": 2,
      "byteOffset": 4772712,
      "componentType": 5126,
      "count": 65532,
      "max": [
        0.9999996423721313,
        0.9999996423721313,
        0.9999993443489075
      ],
      "min": [
        -0.9999977350234985,
        -1.0,
        -0.9999993443489075
      ],
      "type": "VEC3"
    },
    {
      "bufferView": 3,
      "byteOffset": 2657552,
      "componentType": 5126,
      "count": 65532,
      "max": [
        0.09803921729326248,
        0.8666666746139526,
        1.0,
        1.0
      ],
      "min": [
        0.0,
        0.0,
        0.0,
        1.0
      ],
      "type": "VEC4"
    },
    {
      "bufferView": 1,
      "byteOffset": 1328776,
      "componentType": 5126,
      "count": 65532,
      "max": [
        2.9995169639587402,
        0.9999290108680725
      ],
      "min": [
        2.0011210441589355,
        0.00013000000035390258
      ],
      "type": "VEC2"
    },
    {
      "bufferView": 0,
      "byteOffset": 3621420,
      "componentType": 5125,
      "count": 356382,
      "type": "SCALAR"
    },
    {
      "bufferView": 2,
      "byteOffset": 5559096,
      "componentType": 5126,
      "count": 40092,
      "max": [
        34.03666305541992,
        0.38672399520874023,
        20.985363006591797
      ],
      "min": [
        -26.309709548950195,
        -3.1555919647216797,
        1.0434210300445557
      ],
      "type": "VEC3"
    },
    {
      "bufferView": 2,
      "byteOffset": 6040200,
      "componentType": 5126,
      "count": 40092,
      "max": [
        0.9999997615814209,
        0.9998587369918823,
        0.9999916553497314
      ],
      "min": [
        -0.9999591112136841,
        -0.9999974966049194,
        -0.999988853931427
      ],
      "type": "VEC3"
    },
    {
      "bufferView": 3,
      "byteOffset": 3706064,
      "componentType": 5126,
      "count": 40092,
      "max": [
        0.062745101749897,
        0.8470588326454163,
        1.0,
        1.0
      ],
      "min": [
        0.0,
        0.0,
        0.0,
        1.0
      ],
      "type": "VEC4"
    },
    {
      "bufferView": 1,
      "byteOffset": 1853032,
      "componentType": 5126,
      "count": 40092,
      "max": [
        2.999943971633911,
        0.9998720288276672
      ],
      "min": [
        2.0000150203704834,
        1.8999999156221747e-05
      ],
      "type": "VEC2"
    },
    {
      "bufferView": 0,
      "byteOffset": 5046948,
      "componentType": 5125,
      "count": 204096,
      "type": "SCALAR"
    },
    {
      "bufferView": 2,
      "byteOffset": 6521304,
      "componentType": 5126,
      "count": 65532,
      "max": [
        29.754383087158203,
        0.5050519704818726,
        20.958492279052734
      ],
      "min": [
        -30.32048988342285,
        -3.185343027114868,
        1.0333640575408936
      ],
      "type": "VEC3"
    },
    {
      "bufferView": 2,
      "byteOffset": 7307688,
      "componentType": 5126,
      "count": 65532,
      "max": [
        0.9999998807907104,
        0.9994361400604248,
        0.999997615814209
      ],
      "min": [
        -0.9999998807907104,
        -0.9999993443489075,
        -0.999987006187439
      ],
      "type": "VEC3"
    },
    {
      "bufferView": 3,
      "byteOffset": 4347536,
      "componentType": 5126,
      "count": 65532,
      "max": [
        0.13333334028720856,
        0.8117647171020508,
        1.0,
        1.0
      ],
      "min": [
        0.0,
        0.0,
        0.0,
        1.0
      ],
      "type": "VEC4"
    },
    {
      "bufferView": 1,
      "byteOffset": 2173768,
      "componentType": 5126,
      "count": 65532,
      "max": [
        3.9999940395355225,
        0.9999889731407166
      ],
      "min": [
        3.0003960132598877,
        2.099999983329326e-05
      ],
      "type": "VEC2"
    },
    {
      "bufferView": 0,
      "byteOffset": 5863332,
      "componentType": 5125,
      "count": 356736,
      "type": "SCALAR"
    },
    {
      "bufferView": 2,
      "byteOffset": 8094072,
      "componentType": 5126,
      "count": 32397,
      "max": [
        28.6386775970459,
        0.35769200325012207,
        20.978910446166992
      ],
      "min": [
        -26.391855239868164,
        -2.970076084136963,
        1.0443530082702637
      ],
      "type": "VEC3"
    },
    {
      "bufferView": 2,
      "byteOffset": 8482836,
      "componentType": 5126,
      "count": 32397,
      "max": [
        0.9999996423721313,
        0.9999254941940308,
        0.999997615814209
      ],
      "min": [
        -0.9999996423721313,
        -0.9999983310699463,
        -0.9999898672103882
      ],
      "type": "VEC3"
    },
    {
      "bufferView": 3,
      "byteOffset": 5396048,
      "componentType": 5126,
      "count": 32397,
      "max": [
        0.0470588244497776,
        0.7960784435272217,
        1.0,
        1.0
      ],
      "min": [
        0.0,
        0.0,
        0.0,
        1.0
      ],
      "type": "VEC4"
    },
    {
      "bufferView": 1,
      "byteOffset": 2698024,
      "componentType": 5126,
      "count": 32397,
      "max": [
        3.999993085861206,
        0.9999470114707947
      ],
      "min": [
        3.000178098678589,
        9.999999974752427e-07
      ],
      "type": "VEC2"
    },
    {
      "bufferView": 0,
      "byteOffset": 7290276,
      "componentType": 5125,
      "count": 166653,
      "type": "SCALAR"
    },
    {
      "bufferView": 2,
      "byteOffset": 8871600,
      "componentType": 5126,
      "count": 65532,
      "max": [
        29.511686325073242,
        0.3467249870300293,
        18.243606567382813
      ],
      "min": [
        -14.299650192260742,
        -3.179363965988159,
        1.0358400344848633
      ],
      "type": "VEC3"
    },
    {
      "bufferView": 2,
      "byteOffset": 9657984,
      "componentType": 5126,
      "count": 65532,
      "max": [
        0.9999807476997375,
        0.9999064803123474,
        0.9999849796295166
      ],
      "min": [
        -0.9999903440475464,
        -0.9999971389770508,
        -0.99992436170578
      ],
      "type": "VEC3"
    },
    {
      "bufferView": 3,
      "byteOffset": 5914400,
      "componentType": 5126,
      "count": 65532,
      "max": [
        0.15294118225574493,
        0.8705882430076599,
        1.0,
        1.0
      ],
      "min": [
        0.0,
        0.0,
        0.0,
        1.0
      ],
      "type": "VEC4"
    },
    {
      "bufferView": 1,
      "byteOffset": 2957200,
      "componentType": 5126,
      "count": 65532,
      "max": [
        4.998747825622559,
        0.9999079704284668
      ],
      "min": [
        4.002981185913086,
        1.9999999494757503e-05
      ],
      "type": "VEC2"
    },
    {
      "bufferView": 0,
      "byteOffset": 7956888,
      "componentType": 5125,
      "count": 356295,
      "type": "SCALAR"
    },
    {
      "bufferView": 2,
      "byteOffset": 10444368,
      "componentType": 5126,
      "count": 54496,
      "max": [
        22.280746459960938,
        0.3857699930667877,
        20.991594314575195
      ],
      "min": [
        -25.868314743041992,
        -3.083409070968628,
        1.037626028060913
      ],
      "type": "VEC3"
    },
    {
      "bufferView": 2,
      "byteOffset": 11098320,
      "componentType": 5126,
      "count": 54496,
      "max": [
        0.999995768070221,
        0.9997803568840027,
        0.9999375939369202
      ],
      "min": [
        -0.9999436140060425,
        -0.999999463558197,
        -0.9999927878379822
      ],
      "type": "VEC3"
    },
    {
      "bufferView": 3,
      "byteOffset": 6962912,
      "componentType": 5126,
      "count": 54496,
      "max": [
        0.05098039284348488,
        0.8196078538894653,
        1.0,
        1.0
      ],
      "min": [
        0.0,
        0.0,
        0.0,
        1.0
      ],
      "type": "VEC4"
    },
    {
      "bufferView": 1,
      "byteOffset": 3481456,
      "componentType": 5126,
      "count": 54496,
      "max": [
        4.998603820800781,
        0.9998779892921448
      ],
      "min": [
        4.0,
        0.0
      ],
      "type": "VEC2"
    },
    {
      "bufferView": 0,
      "byteOffset": 9382068,
      "componentType": 5125,
      "count": 289839,
      "type": "SCALAR"
    }
  ],
  "asset": {
    "extras": {
      "author": "Rodrigo Torres (https://sketchfab.com/arqueologia3d)",
      "license": "CC-BY-4.0 (http://creativecommons.org/licenses/by/4.0/)",
      "source": "https://sketchfab.com/3d-models/vapor-pirapama-recife-pe-47e9e45806e64cafb5a7fec6d9146b23",
      "title": "Vapor Pirapama Recife - PE"
    },
    "generator": "Sketchfab-12.68.0",
    "version": "2.0"
  },
  "bufferViews": [
    {
      "buffer": 0,
      "byteLength": 10541424,
      "name": "floatBufferViews",
      "target": 34963
    },
    {
      "buffer": 0,
      "byteLength": 3917424,
      "byteOffset": 10541424,
      "byteStride": 8,
      "name": "floatBufferViews",
      "target": 34962
    },
    {
      "buffer": 0,
      "byteLength": 11752272,
      "byteOffset": 14458848,
      "byteStride": 12,
      "name": "floatBufferViews",
      "target": 34962
    },
    {
      "buffer": 0,
      "byteLength": 7834848,
      "byteOffset": 26211120,
      "byteStride": 16,
      "name": "floatBufferViews",
      "target": 34962
    }
  ],
  "buffers": [
    {
      "byteLength": 34045968,
      "uri": "scene.bin"
    }
  ],
  "materials": [
    {
      "doubleSided": true,
      "name": "Pirapama_3d.1001",
      "pbrMetallicRoughness": {
        "metallicFactor": 0.0
      }
    },
    {
      "doubleSided": true,
      "name": "Pirapama_3d.1002",
      "pbrMetallicRoughness": {
        "metallicFactor": 0.0
      }
    },
    {
      "doubleSided": true,
      "name": "Pirapama_3d.1003",
      "pbrMetallicRoughness": {
        "metallicFactor": 0.0
      }
    },
    {
      "doubleSided": true,
      "name": "Pirapama_3d.1004",
      "pbrMetallicRoughness": {
        "metallicFactor": 0.0
      }
    },
    {
      "doubleSided": true,
      "name": "Pirapama_3d.1005",
      "pbrMetallicRoughness": {
        "metallicFactor": 0.0
      }
    }
  ],
  "meshes": [
    {
      "name": "Object_0",
      "primitives": [
        {
          "attributes": {
            "COLOR_0": 2,
            "NORMAL": 1,
            "POSITION": 0,
            "TEXCOORD_0": 3
          },
          "indices": 4,
          "material": 0,
          "mode": 4
        }
      ]
    },
    {
      "name": "Object_1",
      "primitives": [
        {
          "attributes": {
            "COLOR_0": 7,
            "NORMAL": 6,
            "POSITION": 5,
            "TEXCOORD_0": 8
          },
          "indices": 9,
          "material": 0,
          "mode": 4
        }
      ]
    },
    {
      "name": "Object_2",
      "primitives": [
        {
          "attributes": {
            "COLOR_0": 12,
            "NORMAL": 11,
            "POSITION": 10,
            "TEXCOORD_0": 13
          },
          "indices": 14,
          "material": 1,
          "mode": 4
        }
      ]
    },
    {
      "name": "Object_3",
      "primitives": [
        {
          "attributes": {
            "COLOR_0": 17,
            "NORMAL": 16,
            "POSITION": 15,
            "TEXCOORD_0": 18
          },
          "indices": 19,
          "material": 1,
          "mode": 4
        }
      ]
    },
    {
      "name": "Object_4",
      "primitives": [
        {
          "attributes": {
            "COLOR_0": 22,
            "NORMAL": 21,
            "POSITION": 20,
            "TEXCOORD_0": 23
          },
          "indices": 24,
          "material": 2,
          "mode": 4
        }
      ]
    },
    {
      "name": "Object_5",
      "primitives": [
        {
          "attributes": {
            "COLOR_0": 27,
            "NORMAL": 26,
            "POSITION": 25,
            "TEXCOORD_0": 28
          },
          "indices": 29,
          "material": 2,
          "mode": 4
        }
      ]
    },
    {
      "name": "Object_6",
      "primitives": [
        {
          "attributes": {
            "COLOR_0": 32,
            "NORMAL": 31,
            "POSITION": 30,
            "TEXCOORD_0": 33
          },
          "indices": 34,
          "material": 3,
          "mode": 4
        }
      ]
    },
    {
      "name": "Object_7",
      "primitives": [
        {
          "attributes": {
            "COLOR_0": 37,
            "NORMAL": 36,
            "POSITION": 35,
            "TEXCOORD_0": 38
          },
          "indices": 39,
          "material": 3,
          "mode": 4
        }
      ]
    },
    {
      "name": "Object_8",
      "primitives": [
        {
          "attributes": {
            "COLOR_0": 42,
            "NORMAL": 41,
            "POSITION": 40,
            "TEXCOORD_0": 43
          },
          "indices": 44,
          "material": 4,
          "mode": 4
        }
      ]
    },
    {
      "name": "Object_9",
      "primitives": [
        {
          "attributes": {
            "COLOR_0": 47,
            "NORMAL": 46,
            "POSITION": 45,
            "TEXCOORD_0": 48
          },
          "indices": 49,
          "material": 4,
          "mode": 4
        }
      ]
    }
  ],
  "nodes": [
    {
      "children": [
        1
      ],
      "matrix": [
        0.9999925494194031,
        -0.003855745540931821,
        1.121424266074625e-20,
        0.0,
        -0.0038553469348698854,
        -0.9998891949653625,
        -0.0143773425370457,
        0.0,
        5.543537554331124e-05,
        0.014377236366272195,
        -0.9998966455459595,
        0.0,
        -0.006043898407369852,
        9.444069862365719,
        12.399495124816896,
        1.0
      ],
      "name": "Sketchfab_model"
    },
    {
      "children": [
        2,
        3,
        4,
        5,
        6,
        7,
        8,
        9,
        10,
        11
      ],
      "name": "Pirapama 3d.obj.cleaner.materialmerger.gles"
    },
    {
      "mesh": 0,
      "name": "Object_2"
    },
    {
      "mesh": 1,
      "name": "Object_3"
    },
    {
      "mesh": 2,
      "name": "Object_4"
    },
    {
      "mesh": 3,
      "name": "Object_5"
    },
    {
      "mesh": 4,
      "name": "Object_6"
    },
    {
      "mesh": 5,
      "name": "Object_7"
    },
    {
      "mesh": 6,
      "name": "Object_8"
    },
    {
      "mesh": 7,
      "name": "Object_9"
    },
    {
      "mesh": 8,
      "name": "Object_10"
    },
    {
      "mesh": 9,
      "name": "Object_11"
    }
  ],
  "scene": 0,
  "scenes": [
    {
      "name": "Sketchfab_Scene",
      "nodes": [
        0
      ]
    }
  ]
}
